<svg width="24" height="24" viewBox="0 0 24 24" fill="none" xmlns="http://www.w3.org/2000/svg">
<path d="M14.1482 13.0484C14.1852 13.3808 14.1852 13.7133 14.1852 14.6367C14.1852 15.634 14.1852 16.0403 14.1482 16.3359H14.8519C14.8148 16.0034 14.8148 15.5971 14.8148 14.6367C14.8148 13.7133 14.8148 13.3808 14.8519 13.0484H14.1482Z" fill="#FFFCFC"/>
<path d="M15.5185 15.4863C15.5185 16.0773 15.963 16.4097 16.7407 16.4097C17.5185 16.4097 18 16.0403 18 15.4493C18 15.043 17.7778 14.7475 17.3333 14.6367C17.6667 14.5259 17.8889 14.2304 17.8889 13.861C17.8889 13.3069 17.4815 12.9745 16.7778 12.9745C16.0741 12.9745 15.6296 13.3069 15.6296 13.861C15.6296 14.2304 15.8148 14.4889 16.1852 14.5998C15.7408 14.7845 15.5185 15.08 15.5185 15.4863ZM16.7407 13.3069C17.037 13.3069 17.2222 13.5286 17.2222 13.8979C17.2222 14.2673 17.037 14.4889 16.7778 14.4889C16.4815 14.4889 16.2963 14.2673 16.2963 13.8979C16.2593 13.5286 16.4445 13.3069 16.7407 13.3069ZM16.7407 14.8214C17.0741 14.8214 17.2963 15.08 17.2963 15.4863C17.2963 15.8926 17.0741 16.1142 16.7778 16.1142C16.4445 16.1142 16.2222 15.8557 16.2222 15.4493C16.1852 15.043 16.4074 14.8214 16.7407 14.8214Z" fill="#FFFCFC"/>
<path d="M18.4445 15.4863C18.4445 16.0773 18.8889 16.4097 19.6667 16.4097C20.4445 16.4097 20.9259 16.0403 20.9259 15.4493C20.9259 15.043 20.7037 14.7475 20.2593 14.6367C20.5926 14.5259 20.8148 14.2304 20.8148 13.861C20.8148 13.3069 20.4074 12.9745 19.7037 12.9745C19 12.9745 18.5556 13.3069 18.5556 13.861C18.5556 14.2304 18.7408 14.4889 19.1111 14.5998C18.6667 14.7845 18.4445 15.08 18.4445 15.4863ZM19.6667 13.3069C19.963 13.3069 20.1482 13.5286 20.1482 13.8979C20.1482 14.2673 19.963 14.4889 19.7037 14.4889C19.4074 14.4889 19.2222 14.2673 19.2222 13.8979C19.2222 13.5286 19.3704 13.3069 19.6667 13.3069ZM19.6667 14.8214C20 14.8214 20.2222 15.08 20.2222 15.4863C20.2222 15.8926 20 16.1142 19.7037 16.1142C19.3704 16.1142 19.1482 15.8557 19.1482 15.4493C19.1482 15.043 19.3334 14.8214 19.6667 14.8214Z" fill="#FFFCFC"/>
<path d="M22.8148 14.2304C22.4445 14.2304 22.1852 14.4151 22.0371 14.5628C22.0741 13.8241 22.2593 13.3069 22.8148 13.3069C23.2223 13.3069 23.4445 13.7133 23.4445 13.7133V13.1223C23.4445 13.1223 23.2223 13.0114 22.7778 13.0114C21.926 13.0114 21.3334 13.6394 21.3334 14.7845C21.3334 15.9295 21.8148 16.4467 22.5926 16.4467C23.3334 16.4467 23.7778 16.0034 23.7778 15.3016C23.8148 14.5998 23.4445 14.2304 22.8148 14.2304ZM22.6667 16.1142C22.3334 16.1142 22.1111 15.8187 22.0741 14.9692C22.1852 14.8214 22.3704 14.6737 22.6297 14.6737C23 14.6737 23.1482 14.8953 23.1482 15.3755C23.1482 15.8187 22.963 16.1142 22.6667 16.1142Z" fill="#FFFCFC"/>
<path d="M20.4815 3.51835C15.7778 -1.17278 8.18519 -1.17278 3.51852 3.51835C1.25926 5.77157 0.0740741 8.72661 0 11.7186V11.7555C0 11.8663 0 12.0141 0 12.1249C0 12.088 0 12.0141 0 11.9772C0 13.0114 0.111111 14.0088 0.370371 15.043C2.03704 21.4333 8.59259 25.2749 15.037 23.6126C18.0741 22.8369 20.5185 20.9531 22.0741 18.5521H22.037C20.5926 20.6207 18.4444 22.209 15.8148 22.8739C9.96296 24.3883 3.96296 20.8792 2.44444 15.043C2.14815 13.9349 2.07407 12.7898 2.11111 11.7186H2.59259C2.55556 12.6051 2.66667 13.5286 2.88889 14.4151C4.25926 19.6603 9.62963 22.8 14.8519 21.4333C16.7778 20.9531 18.4074 19.8819 19.6296 18.5521C18.0741 20.0297 15.9259 20.9531 13.5926 20.9531C11.0741 20.9531 8.81481 19.8819 7.18518 18.1828C7.14815 18.1458 7.14815 18.1458 7.11111 18.1089C7.07407 18.0719 7.07407 18.035 7.03704 18.035C6.18518 17.0007 5.48148 15.7818 5.11111 14.3781C4.88889 13.4916 4.81481 12.6051 4.85185 11.7186H5.40741C5.37037 12.4574 5.44444 13.2331 5.62963 13.9718C6.66667 17.9981 10.7778 20.399 14.8148 19.3648C15.5185 19.1801 16.1481 18.9215 16.7407 18.5521H16.5926C15.8148 18.8846 14.9259 19.1062 14 19.1062C10.4074 19.1062 7.44444 16.1881 7.44444 12.5682C7.44444 12.2727 7.48148 11.9772 7.51852 11.7186H24C23.9259 8.72661 22.7778 5.77157 20.4815 3.51835ZM3.81481 11.3862C4.03704 10.1672 4.62963 9.02212 5.55556 8.09867C8.03704 5.62382 12.0741 5.62382 14.5556 8.09867C15.1852 8.72661 15.6667 9.50231 16 10.278L3.81481 11.3862ZM16.4815 7.10134C13.5556 4.18323 8.77778 4.18323 5.81481 7.10134C4.59259 8.32029 3.92593 9.83475 3.7037 11.3862L1.77778 11.5708C2.03704 9.72394 2.85185 7.91398 4.25926 6.47339C7.7037 3.03815 13.2963 3.03815 16.7037 6.47339C17.7407 7.50766 18.4444 8.72661 18.8519 10.0194L18.2963 10.0564C17.963 8.98518 17.3704 7.95091 16.4815 7.10134ZM21.1481 9.79782C20.7407 8.1356 19.8889 6.58421 18.5926 5.29137C14.7407 1.44982 8.44444 1.44982 4.59259 5.29137C2.85185 7.02746 1.92593 9.24375 1.74074 11.5339L0.62963 11.6447L0.0370372 11.6817C0.185185 9.09599 1.22222 6.51033 3.22222 4.55261C7.51852 0.2678 14.4444 0.2678 18.7407 4.55261C20.2222 6.03013 21.1852 7.8401 21.6296 9.76088L21.1481 9.79782Z" fill="#FFFCFC"/>
</svg>
