<svg width="51" height="51" viewBox="0 0 51 51" fill="none" xmlns="http://www.w3.org/2000/svg">
<path d="M30.0649 27.7278C30.1436 28.4342 30.1436 29.1407 30.1436 31.103C30.1436 33.2223 30.1436 34.0857 30.0649 34.7137H31.5602C31.4815 34.0072 31.4815 33.1438 31.4815 31.103C31.4815 29.1407 31.4815 28.4342 31.5602 27.7278H30.0649Z" fill="#2A2A2A"/>
<path d="M32.9769 32.9083C32.9769 34.1642 33.9213 34.8707 35.5741 34.8707C37.2269 34.8707 38.25 34.0857 38.25 32.8298C38.25 31.9664 37.7778 31.3385 36.8334 31.103C37.5417 30.8675 38.0139 30.2396 38.0139 29.4546C38.0139 28.2772 37.1482 27.5708 35.6528 27.5708C34.1574 27.5708 33.213 28.2772 33.213 29.4546C33.213 30.2396 33.6065 30.789 34.3935 31.0245C33.4491 31.417 32.9769 32.0449 32.9769 32.9083ZM35.5741 28.2772C36.2037 28.2772 36.5972 28.7482 36.5972 29.5331C36.5972 30.3181 36.2037 30.789 35.6528 30.789C35.0232 30.789 34.6296 30.3181 34.6296 29.5331C34.5509 28.7482 34.9445 28.2772 35.5741 28.2772ZM35.5741 31.4955C36.2824 31.4955 36.7547 32.0449 36.7547 32.9083C36.7547 33.7718 36.2824 34.2427 35.6528 34.2427C34.9445 34.2427 34.4722 33.6933 34.4722 32.8298C34.3935 31.9664 34.8658 31.4955 35.5741 31.4955Z" fill="#2A2A2A"/>
<path d="M39.1945 32.9083C39.1945 34.1642 40.1389 34.8707 41.7917 34.8707C43.4445 34.8707 44.4676 34.0857 44.4676 32.8298C44.4676 31.9664 43.9954 31.3385 43.051 31.103C43.7593 30.8675 44.2315 30.2396 44.2315 29.4546C44.2315 28.2772 43.3658 27.5708 41.8704 27.5708C40.375 27.5708 39.4306 28.2772 39.4306 29.4546C39.4306 30.2396 39.8241 30.789 40.6111 31.0245C39.6667 31.417 39.1945 32.0449 39.1945 32.9083ZM41.7917 28.2772C42.4213 28.2772 42.8148 28.7482 42.8148 29.5331C42.8148 30.3181 42.4213 30.789 41.8704 30.789C41.2408 30.789 40.8473 30.3181 40.8473 29.5331C40.8473 28.7482 41.1621 28.2772 41.7917 28.2772ZM41.7917 31.4955C42.5 31.4955 42.9723 32.0449 42.9723 32.9083C42.9723 33.7718 42.5 34.2427 41.8704 34.2427C41.1621 34.2427 40.6899 33.6933 40.6899 32.8298C40.6899 31.9664 41.0834 31.4955 41.7917 31.4955Z" fill="#2A2A2A"/>
<path d="M48.4816 30.2396C47.6945 30.2396 47.1436 30.6321 46.8288 30.946C46.9075 29.3762 47.301 28.2773 48.4816 28.2773C49.3473 28.2773 49.8195 29.1407 49.8195 29.1407V27.8848C49.8195 27.8848 49.3473 27.6493 48.4028 27.6493C46.5927 27.6493 45.3334 28.9837 45.3334 31.417C45.3334 33.8503 46.3566 34.9492 48.0093 34.9492C49.5834 34.9492 50.5278 34.0073 50.5278 32.5159C50.6066 31.0245 49.8195 30.2396 48.4816 30.2396ZM48.1667 34.2427C47.4584 34.2427 46.9862 33.6148 46.9075 31.8095C47.1436 31.4955 47.5371 31.1815 48.088 31.1815C48.8751 31.1815 49.1899 31.6525 49.1899 32.6729C49.1899 33.6148 48.7964 34.2427 48.1667 34.2427Z" fill="#2A2A2A"/>
<path d="M43.5231 7.47649C33.5278 -2.49216 17.3935 -2.49216 7.47685 7.47649C2.67593 12.2646 0.157407 18.5441 0 24.902V24.9805C0 25.216 0 25.53 0 25.7654C0 25.6869 0 25.53 0 25.4515C0 27.6493 0.236112 29.7686 0.787038 31.9664C4.3287 45.5458 18.2593 53.7091 31.9537 50.1769C38.4074 48.5285 43.6018 44.5253 46.9074 39.4233H46.8287C43.7593 43.8189 39.1944 47.1941 33.6065 48.607C21.1713 51.8252 8.4213 44.3684 5.19444 31.9664C4.56481 29.6116 4.40741 27.1783 4.48611 24.902H5.50926C5.43056 26.7859 5.66667 28.7482 6.13889 30.632C9.05093 41.7781 20.463 48.45 31.5602 45.5458C35.6528 44.5253 39.1157 42.249 41.713 39.4233C38.4074 42.563 33.8426 44.5253 28.8843 44.5253C23.5324 44.5253 18.7315 42.249 15.2685 38.6383C15.1898 38.5599 15.1898 38.5599 15.1111 38.4814C15.0324 38.4029 15.0324 38.3244 14.9537 38.3244C13.1435 36.1266 11.6481 33.5363 10.8611 30.5535C10.3889 28.6697 10.2315 26.7859 10.3102 24.902H11.4907C11.412 26.4719 11.5694 28.1202 11.963 29.6901C14.1667 38.2459 22.9028 43.3479 31.4815 41.1501C32.9768 40.7577 34.3148 40.2082 35.5741 39.4233H35.2593C33.6065 40.1297 31.7176 40.6007 29.75 40.6007C22.1157 40.6007 15.8194 34.3997 15.8194 26.7074C15.8194 26.0794 15.8981 25.4515 15.9768 24.902H51C50.8426 18.5441 48.4028 12.2646 43.5231 7.47649ZM8.10648 24.1956C8.5787 21.6053 9.83796 19.172 11.8056 17.2097C17.0787 11.9506 25.6574 11.9506 30.9306 17.2097C32.2685 18.5441 33.2917 20.1924 34 21.8408L8.10648 24.1956ZM35.0231 15.0903C28.8056 8.88937 18.6528 8.88937 12.3565 15.0903C9.75926 17.6806 8.34259 20.8989 7.87037 24.1956L3.77778 24.588C4.3287 20.6634 6.06019 16.8172 9.05093 13.756C16.3704 6.45608 28.2546 6.45608 35.4954 13.756C37.6991 15.9538 39.1944 18.544 40.0602 21.2913L38.8796 21.3698C38.1713 19.0935 36.912 16.8957 35.0231 15.0903ZM44.9398 20.8204C44.0741 17.2882 42.2639 13.9914 39.5093 11.2442C31.3241 3.08086 17.9444 3.08086 9.75926 11.2442C6.06019 14.9334 4.09259 19.643 3.69907 24.5095L1.33796 24.745L0.078704 24.8235C0.393519 19.329 2.59722 13.8344 6.84722 9.6743C15.9769 0.569075 30.6944 0.569075 39.8241 9.6743C42.9722 12.814 45.0185 16.6602 45.963 20.7419L44.9398 20.8204Z" fill="#2A2A2A"/>
</svg>
