<svg width="145" height="24" viewBox="0 0 145 24" fill="none" xmlns="http://www.w3.org/2000/svg">
<path d="M14.1482 13.0484C14.1852 13.3808 14.1852 13.7133 14.1852 14.6367C14.1852 15.634 14.1852 16.0403 14.1482 16.3359H14.8519C14.8148 16.0034 14.8148 15.5971 14.8148 14.6367C14.8148 13.7133 14.8148 13.3808 14.8519 13.0484H14.1482Z" fill="#FFFCFC"/>
<path d="M15.5185 15.4863C15.5185 16.0773 15.963 16.4097 16.7407 16.4097C17.5185 16.4097 18 16.0403 18 15.4493C18 15.043 17.7778 14.7475 17.3333 14.6367C17.6667 14.5259 17.8889 14.2304 17.8889 13.861C17.8889 13.3069 17.4815 12.9745 16.7778 12.9745C16.0741 12.9745 15.6296 13.3069 15.6296 13.861C15.6296 14.2304 15.8148 14.4889 16.1852 14.5998C15.7408 14.7845 15.5185 15.08 15.5185 15.4863ZM16.7407 13.3069C17.037 13.3069 17.2222 13.5286 17.2222 13.8979C17.2222 14.2673 17.037 14.4889 16.7778 14.4889C16.4815 14.4889 16.2963 14.2673 16.2963 13.8979C16.2593 13.5286 16.4445 13.3069 16.7407 13.3069ZM16.7407 14.8214C17.0741 14.8214 17.2963 15.08 17.2963 15.4863C17.2963 15.8926 17.0741 16.1142 16.7778 16.1142C16.4445 16.1142 16.2222 15.8557 16.2222 15.4493C16.1852 15.043 16.4074 14.8214 16.7407 14.8214Z" fill="#FFFCFC"/>
<path d="M18.4445 15.4863C18.4445 16.0773 18.8889 16.4097 19.6667 16.4097C20.4445 16.4097 20.9259 16.0403 20.9259 15.4493C20.9259 15.043 20.7037 14.7475 20.2593 14.6367C20.5926 14.5259 20.8148 14.2304 20.8148 13.861C20.8148 13.3069 20.4074 12.9745 19.7037 12.9745C19 12.9745 18.5556 13.3069 18.5556 13.861C18.5556 14.2304 18.7408 14.4889 19.1111 14.5998C18.6667 14.7845 18.4445 15.08 18.4445 15.4863ZM19.6667 13.3069C19.963 13.3069 20.1482 13.5286 20.1482 13.8979C20.1482 14.2673 19.963 14.4889 19.7037 14.4889C19.4074 14.4889 19.2222 14.2673 19.2222 13.8979C19.2222 13.5286 19.3704 13.3069 19.6667 13.3069ZM19.6667 14.8214C20 14.8214 20.2222 15.08 20.2222 15.4863C20.2222 15.8926 20 16.1142 19.7037 16.1142C19.3704 16.1142 19.1482 15.8557 19.1482 15.4493C19.1482 15.043 19.3334 14.8214 19.6667 14.8214Z" fill="#FFFCFC"/>
<path d="M22.8148 14.2304C22.4445 14.2304 22.1852 14.4151 22.0371 14.5628C22.0741 13.8241 22.2593 13.3069 22.8148 13.3069C23.2223 13.3069 23.4445 13.7133 23.4445 13.7133V13.1223C23.4445 13.1223 23.2223 13.0114 22.7778 13.0114C21.926 13.0114 21.3334 13.6394 21.3334 14.7845C21.3334 15.9295 21.8148 16.4467 22.5926 16.4467C23.3334 16.4467 23.7778 16.0034 23.7778 15.3016C23.8148 14.5998 23.4445 14.2304 22.8148 14.2304ZM22.6667 16.1142C22.3334 16.1142 22.1111 15.8187 22.0741 14.9692C22.1852 14.8214 22.3704 14.6737 22.6297 14.6737C23 14.6737 23.1482 14.8953 23.1482 15.3755C23.1482 15.8187 22.963 16.1142 22.6667 16.1142Z" fill="#FFFCFC"/>
<path d="M20.4815 3.51835C15.7778 -1.17278 8.18519 -1.17278 3.51852 3.51835C1.25926 5.77157 0.0740741 8.72661 0 11.7186V11.7555C0 11.8663 0 12.0141 0 12.1249C0 12.088 0 12.0141 0 11.9772C0 13.0114 0.111111 14.0088 0.370371 15.043C2.03704 21.4333 8.59259 25.2749 15.037 23.6126C18.0741 22.8369 20.5185 20.9531 22.0741 18.5521H22.037C20.5926 20.6207 18.4444 22.209 15.8148 22.8739C9.96296 24.3883 3.96296 20.8792 2.44444 15.043C2.14815 13.9349 2.07407 12.7898 2.11111 11.7186H2.59259C2.55556 12.6051 2.66667 13.5286 2.88889 14.4151C4.25926 19.6603 9.62963 22.8 14.8519 21.4333C16.7778 20.9531 18.4074 19.8819 19.6296 18.5521C18.0741 20.0297 15.9259 20.9531 13.5926 20.9531C11.0741 20.9531 8.81481 19.8819 7.18518 18.1828C7.14815 18.1458 7.14815 18.1458 7.11111 18.1089C7.07407 18.0719 7.07407 18.035 7.03704 18.035C6.18518 17.0007 5.48148 15.7818 5.11111 14.3781C4.88889 13.4916 4.81481 12.6051 4.85185 11.7186H5.40741C5.37037 12.4574 5.44444 13.2331 5.62963 13.9718C6.66667 17.9981 10.7778 20.399 14.8148 19.3648C15.5185 19.1801 16.1481 18.9215 16.7407 18.5521H16.5926C15.8148 18.8846 14.9259 19.1062 14 19.1062C10.4074 19.1062 7.44444 16.1881 7.44444 12.5682C7.44444 12.2727 7.48148 11.9772 7.51852 11.7186H24C23.9259 8.72661 22.7778 5.77157 20.4815 3.51835ZM3.81481 11.3862C4.03704 10.1672 4.62963 9.02212 5.55556 8.09867C8.03704 5.62382 12.0741 5.62382 14.5556 8.09867C15.1852 8.72661 15.6667 9.50231 16 10.278L3.81481 11.3862ZM16.4815 7.10134C13.5556 4.18323 8.77778 4.18323 5.81481 7.10134C4.59259 8.32029 3.92593 9.83475 3.7037 11.3862L1.77778 11.5708C2.03704 9.72394 2.85185 7.91398 4.25926 6.47339C7.7037 3.03815 13.2963 3.03815 16.7037 6.47339C17.7407 7.50766 18.4444 8.72661 18.8519 10.0194L18.2963 10.0564C17.963 8.98518 17.3704 7.95091 16.4815 7.10134ZM21.1481 9.79782C20.7407 8.1356 19.8889 6.58421 18.5926 5.29137C14.7407 1.44982 8.44444 1.44982 4.59259 5.29137C2.85185 7.02746 1.92593 9.24375 1.74074 11.5339L0.62963 11.6447L0.0370372 11.6817C0.185185 9.09599 1.22222 6.51033 3.22222 4.55261C7.51852 0.2678 14.4444 0.2678 18.7407 4.55261C20.2222 6.03013 21.1852 7.8401 21.6296 9.76088L21.1481 9.79782Z" fill="#FFFCFC"/>
<path d="M44.494 6.09601V8.472H36.7V10.812H44.134V13.17H36.7V15.528H44.494V17.904H34V6.09601H44.494Z" fill="#FFFCFC"/>
<path d="M45.8558 8.52601V6.09601H57.7898V8.52601H53.1818V17.904H50.4638V8.52601H45.8558Z" fill="#FFFCFC"/>
<path d="M65.1771 18.12C64.0011 18.12 62.9631 17.892 62.0631 17.436C61.1751 16.968 60.4851 16.314 59.9931 15.474C59.5131 14.634 59.2731 13.656 59.2731 12.54V6.09601H61.9731V12.576C61.9731 13.548 62.2491 14.298 62.8011 14.826C63.3651 15.354 64.1571 15.618 65.1771 15.618C66.2091 15.618 67.0011 15.354 67.5531 14.826C68.1171 14.298 68.3991 13.548 68.3991 12.576V6.09601H71.0991V12.54C71.0991 13.656 70.8531 14.634 70.3611 15.474C69.8811 16.314 69.1911 16.968 68.2911 17.436C67.4031 17.892 66.3651 18.12 65.1771 18.12Z" fill="#FFFCFC"/>
<path d="M74.8012 18.12C74.3452 18.12 73.9672 17.982 73.6672 17.706C73.3792 17.418 73.2352 17.052 73.2352 16.608C73.2352 16.164 73.3792 15.804 73.6672 15.528C73.9672 15.24 74.3452 15.096 74.8012 15.096C75.2692 15.096 75.6472 15.24 75.9352 15.528C76.2232 15.804 76.3672 16.164 76.3672 16.608C76.3672 17.064 76.2232 17.43 75.9352 17.706C75.6472 17.982 75.2692 18.12 74.8012 18.12Z" fill="#FFFCFC"/>
<path d="M84.0878 18.12C82.1438 18.12 80.6678 17.772 79.6598 17.076C78.6518 16.38 78.1478 15.36 78.1478 14.016V13.836H80.8118V14.016C80.8118 14.592 81.0998 15.03 81.6758 15.33C82.2518 15.63 83.0918 15.78 84.1958 15.78C85.1798 15.78 85.9238 15.678 86.4278 15.474C86.9438 15.258 87.2018 14.946 87.2018 14.538V14.412C87.2018 14.088 87.0578 13.842 86.7698 13.674C86.4818 13.494 85.9718 13.35 85.2398 13.242L82.2338 12.81C79.6418 12.426 78.3458 11.358 78.3458 9.60601V9.42601C78.3458 8.31001 78.8318 7.44001 79.8038 6.816C80.7878 6.192 82.1618 5.88 83.9258 5.88C85.7978 5.88 87.2258 6.216 88.2098 6.888C89.1938 7.56 89.6858 8.532 89.6858 9.80401V9.96601H87.0218V9.80401C87.0218 8.748 85.9898 8.22 83.9258 8.22C83.0018 8.22 82.2938 8.316 81.8018 8.50801C81.3218 8.70001 81.0818 8.98201 81.0818 9.35401V9.49801C81.0818 9.774 81.2138 9.99001 81.4778 10.146C81.7538 10.302 82.2218 10.428 82.8818 10.524L85.9058 10.956C87.2858 11.16 88.2998 11.532 88.9478 12.072C89.6078 12.6 89.9378 13.338 89.9378 14.286V14.466C89.9378 15.618 89.4278 16.518 88.4078 17.166C87.3878 17.802 85.9478 18.12 84.0878 18.12Z" fill="#FFFCFC"/>
<path d="M95.0945 6.09601V10.794H111.629V6.09601H114.329V17.904H111.629V13.206H95.0945V17.904H92.3945V6.09601H95.0945Z" fill="#FFFCFC"/>
<path d="M123.641 18.12C122.225 18.12 120.989 17.874 119.933 17.382C118.877 16.89 118.055 16.188 117.467 15.276C116.891 14.364 116.603 13.302 116.603 12.09V11.928C116.603 10.716 116.891 9.65401 117.467 8.74201C118.055 7.83001 118.877 7.128 119.933 6.636C121.001 6.132 122.237 5.88 123.641 5.88C125.057 5.88 126.293 6.132 127.349 6.636C128.405 7.128 129.221 7.83001 129.797 8.74201C130.373 9.65401 130.661 10.716 130.661 11.928V12.09C130.661 13.302 130.373 14.364 129.797 15.276C129.221 16.188 128.405 16.89 127.349 17.382C126.293 17.874 125.057 18.12 123.641 18.12ZM123.641 15.618C125.033 15.618 126.089 15.318 126.809 14.718C127.541 14.118 127.907 13.254 127.907 12.126V11.91C127.907 10.782 127.535 9.91201 126.791 9.30001C126.059 8.688 125.009 8.382 123.641 8.382C122.261 8.382 121.199 8.688 120.455 9.30001C119.723 9.91201 119.357 10.782 119.357 11.91V12.126C119.357 13.254 119.723 14.118 120.455 14.718C121.199 15.318 122.261 15.618 123.641 15.618Z" fill="#FFFCFC"/>
<path d="M140.416 6.09601C141.808 6.09601 142.906 6.43201 143.71 7.10401C144.514 7.77601 144.916 8.69401 144.916 9.85801V10.056C144.916 11.232 144.514 12.156 143.71 12.828C142.906 13.5 141.808 13.836 140.416 13.836H135.628V17.904H132.928V6.09601H140.416ZM140.344 11.442C140.932 11.442 141.382 11.328 141.694 11.1C142.006 10.86 142.162 10.512 142.162 10.056V9.85801C142.162 9.41401 142.006 9.07801 141.694 8.85001C141.382 8.61001 140.932 8.49001 140.344 8.49001H135.628V11.442H140.344Z" fill="#FFFCFC"/>
</svg>
