<svg width="103" height="99" viewBox="0 0 103 99" fill="none" xmlns="http://www.w3.org/2000/svg">
<path d="M80.5505 1.78584L80.5505 1.78483C80.655 -3.71707 78.9634 -7.02579 76.571 -8.32051C74.1921 -9.60791 70.6015 -9.17965 66.2506 -5.99542C66.2498 -5.99487 66.2491 -5.99431 66.2483 -5.99375L49.7249 6.24101C49.7233 6.24221 49.7217 6.24341 49.7201 6.24461C48.426 7.22417 46.6883 7.84879 44.9537 8.12124C43.2156 8.39424 41.3711 8.33094 39.8419 7.82824L39.8342 7.82569L39.8342 7.82566L23.9959 2.47567L80.5505 1.78584ZM80.5505 1.78584L80.1746 22.6896M80.5505 1.78584L80.1746 22.6896M80.1746 22.6896L80.1746 22.6903C80.1746 22.6901 80.1746 22.6898 80.1746 22.6896ZM30.4913 69.7513L30.4922 69.7513C32.328 69.657 34.3341 70.2191 36.0888 71.1574C37.8443 72.096 39.447 73.4638 40.4207 75.0885L30.4913 69.7513ZM30.4913 69.7513L12.559 70.6889C6.24353 71.0147 2.70036 69.2735 1.50603 66.7749C0.30364 64.2593 1.14289 60.2875 5.27097 55.3399L15.9005 42.6555L15.9006 42.6553M30.4913 69.7513L15.9006 42.6553M15.9006 42.6553C17.0282 41.3092 17.8085 39.4462 18.1943 37.5597M15.9006 42.6553L18.1943 37.5597M18.1943 37.5597C18.5801 35.6733 18.595 33.6486 18.0767 31.9574M18.1943 37.5597L18.0767 31.9574M18.0767 31.9574L12.6013 14.0902M18.0767 31.9574L12.6013 14.0902M12.6013 14.0902C12.6011 14.0896 12.601 14.0891 12.6008 14.0885M12.6013 14.0902L12.6008 14.0885M12.6008 14.0885C11.0658 9.00912 11.7751 5.3963 13.6988 3.44321C15.6093 1.50354 19.0953 0.824343 23.9952 2.47544L12.6008 14.0885ZM86.8472 75.86L103.116 92.5726C104.295 93.7839 104.295 95.8128 103.116 97.0241C102.506 97.6508 101.747 97.9351 100.987 97.9351C100.226 97.9351 99.4675 97.6508 98.8575 97.0241L82.589 80.3116C81.4099 79.1003 81.4099 77.0713 82.589 75.86C83.7535 74.6638 85.6827 74.6638 86.8472 75.86Z" stroke="#FFFCFC" stroke-width="2"/>
</svg>
