<svg width="121" height="119" viewBox="0 0 121 119" fill="none" xmlns="http://www.w3.org/2000/svg">
<path d="M75.7433 -0.420003C78.3468 7.27507 80.2409 15.144 81.7354 23.0893C68.2791 21.6759 54.7208 21.6759 41.2645 23.0893C42.7593 15.1369 44.6532 7.21695 47.256 -0.417826L47.2695 -0.457401L47.2796 -0.497962C47.3557 -0.802279 47.3793 -1.06798 47.3898 -1.29174C51.9589 -2.34653 56.6255 -3 61.5 -3C66.3272 -3 71.0557 -2.34353 75.5837 -1.28552C75.6119 -1.04043 75.6518 -0.772024 75.7204 -0.497962L75.7302 -0.458517L75.7433 -0.420003ZM27.0951 37.2623C25.7355 50.7203 25.7355 64.2803 27.0952 77.7382C19.0926 76.2432 11.2225 74.3487 3.58217 71.744L3.5426 71.7305L3.50204 71.7204C3.19772 71.6443 2.93202 71.6207 2.70826 71.6102C1.65347 67.0411 1 62.3745 1 57.5C1 52.6728 1.65647 47.9443 2.71448 43.4163C2.95957 43.3881 3.22798 43.3482 3.50204 43.2796L3.5382 43.2706L3.57359 43.2589C11.2815 40.7089 19.1039 38.7618 27.0951 37.2623ZM119.426 71.7411C111.724 74.2892 103.852 76.2355 95.9107 77.7349C97.3241 64.2788 97.3241 50.7206 95.9107 37.2645C103.863 38.7593 111.783 40.6532 119.418 43.256L119.457 43.2695L119.498 43.2796C119.775 43.3488 120.028 43.4031 120.289 43.4397C121.346 48.0129 122 52.6803 122 57.5C122 62.3745 121.347 67.0411 120.292 71.6102C120.068 71.6207 119.802 71.6443 119.498 71.7204L119.462 71.7294L119.426 71.7411ZM41.2637 91.9123C47.9753 92.6345 54.7061 93.1245 61.5 93.1245C68.2901 93.1245 75.0713 92.6351 81.7366 91.9134C80.2419 99.913 78.3477 107.78 75.744 115.418L75.7305 115.457L75.7204 115.498C75.6518 115.772 75.6119 116.04 75.5837 116.286C71.0557 117.344 66.3272 118 61.5 118C56.6255 118 51.9589 117.347 47.3898 116.292C47.3793 116.068 47.3557 115.802 47.2796 115.498L47.2706 115.462L47.2589 115.426C44.7097 107.721 42.7631 99.9009 41.2637 91.9123ZM33.2952 110.87C22.574 105.234 13.765 96.3771 8.0764 85.6462C14.8595 87.564 21.8147 89.0456 28.7186 90.2251C29.946 97.1739 31.3827 104.088 33.2952 110.87ZM114.965 85.6351C109.275 96.4388 100.331 105.303 89.4959 111.037C91.4876 104.157 93.176 97.2189 94.3501 90.2247C101.314 89.0427 108.186 87.5576 114.965 85.6351ZM94.3508 24.6556C93.1828 17.679 91.5451 10.7555 89.521 3.96751C100.415 9.69716 109.32 18.6062 115.045 29.5029C108.217 27.5197 101.333 25.8759 94.3508 24.6556ZM28.7761 24.706C21.7799 25.8296 14.8406 27.5135 7.96276 29.5042C13.6884 18.6861 22.5334 9.75295 33.3142 4.06212C31.3938 10.8534 29.9559 17.7364 28.7761 24.706ZM83.748 35.252C85.5507 50.041 85.5507 64.959 83.748 79.748C68.959 81.5507 54.041 81.5507 39.252 79.748C37.4493 64.959 37.4493 50.041 39.252 35.252C54.041 33.4493 68.959 33.4493 83.748 35.252Z" stroke="#FFFCFC" stroke-width="2"/>
</svg>
