<svg width="89" height="78" viewBox="0 0 89 78" fill="none" xmlns="http://www.w3.org/2000/svg">
<mask id="path-1-inside-1_144_112" fill="white">
<path d="M90.181 75.3011V80.6602H0.819336V75.3011C0.819336 72.8519 2.82997 70.848 5.28742 70.848H85.713C88.1704 70.848 90.181 72.8519 90.181 75.3011Z"/>
<path d="M23.1598 39.6767H14.2236V70.848H23.1598V39.6767Z"/>
<path d="M41.0321 39.6767H32.0959V70.848H41.0321V39.6767Z"/>
<path d="M58.9044 39.6767H49.9683V70.848H58.9044V39.6767Z"/>
<path d="M76.7768 39.6767H67.8406V70.848H76.7768V39.6767Z"/>
<path d="M87.3661 16.2982L47.1534 0.267183C46.2598 -0.089061 44.7406 -0.089061 43.847 0.267183L3.63423 16.2982C2.0704 16.9216 0.819336 18.7473 0.819336 20.4395V35.2236C0.819336 37.6728 2.82997 39.6767 5.28742 39.6767H85.713C88.1704 39.6767 90.181 37.6728 90.181 35.2236V20.4395C90.181 18.7473 88.93 16.9216 87.3661 16.2982ZM45.5002 28.544C41.7917 28.544 38.7981 25.5605 38.7981 21.8645C38.7981 18.1684 41.7917 15.1849 45.5002 15.1849C49.2087 15.1849 52.2023 18.1684 52.2023 21.8645C52.2023 25.5605 49.2087 28.544 45.5002 28.544Z"/>
</mask>
<path d="M90.181 80.6602V82.6602C91.2856 82.6602 92.181 81.7648 92.181 80.6602H90.181ZM0.819336 80.6602H-1.18066C-1.18066 81.7648 -0.285234 82.6602 0.819336 82.6602L0.819336 80.6602ZM14.2236 39.6767V37.6767H12.2236V39.6767H14.2236ZM23.1598 39.6767H25.1598V37.6767H23.1598V39.6767ZM23.1598 70.848V72.848H25.1598V70.848H23.1598ZM14.2236 70.848H12.2236V72.848H14.2236V70.848ZM32.0959 39.6767V37.6767H30.0959V39.6767H32.0959ZM41.0321 39.6767H43.0321V37.6767H41.0321V39.6767ZM41.0321 70.848V72.848H43.0321V70.848H41.0321ZM32.0959 70.848H30.0959V72.848H32.0959V70.848ZM49.9683 39.6767V37.6767H47.9683V39.6767H49.9683ZM58.9044 39.6767H60.9044V37.6767H58.9044V39.6767ZM58.9044 70.848V72.848H60.9044V70.848H58.9044ZM49.9683 70.848H47.9683V72.848H49.9683V70.848ZM67.8406 39.6767V37.6767H65.8406V39.6767H67.8406ZM76.7768 39.6767H78.7768V37.6767H76.7768V39.6767ZM76.7768 70.848V72.848H78.7768V70.848H76.7768ZM67.8406 70.848H65.8406V72.848H67.8406V70.848ZM87.3661 16.2982L88.1068 14.4403L87.3661 16.2982ZM47.1534 0.267183L46.4128 2.125L47.1534 0.267183ZM43.847 0.267183L43.1064 -1.59063L43.847 0.267183ZM3.63423 16.2982L2.89361 14.4403L3.63423 16.2982ZM88.181 75.3011V80.6602H92.181V75.3011H88.181ZM90.181 78.6602H0.819336V82.6602H90.181V78.6602ZM2.81934 80.6602V75.3011H-1.18066V80.6602H2.81934ZM2.81934 75.3011C2.81934 73.9628 3.92818 72.848 5.28742 72.848V68.848C1.73177 68.848 -1.18066 71.741 -1.18066 75.3011H2.81934ZM5.28742 72.848H85.713V68.848H5.28742V72.848ZM85.713 72.848C87.0722 72.848 88.181 73.9628 88.181 75.3011H92.181C92.181 71.741 89.2686 68.848 85.713 68.848V72.848ZM14.2236 41.6767H23.1598V37.6767H14.2236V41.6767ZM21.1598 39.6767V70.848H25.1598V39.6767H21.1598ZM23.1598 68.848H14.2236V72.848H23.1598V68.848ZM16.2236 70.848V39.6767H12.2236V70.848H16.2236ZM32.0959 41.6767H41.0321V37.6767H32.0959V41.6767ZM39.0321 39.6767V70.848H43.0321V39.6767H39.0321ZM41.0321 68.848H32.0959V72.848H41.0321V68.848ZM34.0959 70.848V39.6767H30.0959V70.848H34.0959ZM49.9683 41.6767H58.9044V37.6767H49.9683V41.6767ZM56.9044 39.6767V70.848H60.9044V39.6767H56.9044ZM58.9044 68.848H49.9683V72.848H58.9044V68.848ZM51.9683 70.848V39.6767H47.9683V70.848H51.9683ZM67.8406 41.6767H76.7768V37.6767H67.8406V41.6767ZM74.7768 39.6767V70.848H78.7768V39.6767H74.7768ZM76.7768 68.848H67.8406V72.848H76.7768V68.848ZM69.8406 70.848V39.6767H65.8406V70.848H69.8406ZM88.1068 14.4403L47.894 -1.59063L46.4128 2.125L86.6255 18.156L88.1068 14.4403ZM47.894 -1.59063C47.1353 -1.89308 46.2595 -2 45.5002 -2C44.7409 -2 43.865 -1.89308 43.1064 -1.59063L44.5876 2.125C44.7226 2.0712 45.0531 2 45.5002 2C45.9473 2 46.2778 2.0712 46.4128 2.125L47.894 -1.59063ZM43.1064 -1.59063L2.89361 14.4403L4.37486 18.156L44.5876 2.125L43.1064 -1.59063ZM2.89361 14.4403C1.67668 14.9255 0.677357 15.8295 -0.0124308 16.8419C-0.702298 17.8543 -1.18066 19.1191 -1.18066 20.4395H2.81934C2.81934 20.0677 2.9665 19.5736 3.29312 19.0942C3.61983 18.6148 4.02795 18.2943 4.37486 18.156L2.89361 14.4403ZM-1.18066 20.4395V35.2236H2.81934V20.4395H-1.18066ZM-1.18066 35.2236C-1.18066 38.7837 1.73177 41.6767 5.28742 41.6767V37.6767C3.92818 37.6767 2.81934 36.5619 2.81934 35.2236H-1.18066ZM5.28742 41.6767H85.713V37.6767H5.28742V41.6767ZM85.713 41.6767C89.2686 41.6767 92.181 38.7837 92.181 35.2236H88.181C88.181 36.5619 87.0722 37.6767 85.713 37.6767V41.6767ZM92.181 35.2236V20.4395H88.181V35.2236H92.181ZM92.181 20.4395C92.181 19.1191 91.7027 17.8543 91.0128 16.8419C90.323 15.8295 89.3237 14.9255 88.1068 14.4403L86.6255 18.156C86.9724 18.2943 87.3805 18.6148 87.7073 19.0942C88.0339 19.5736 88.181 20.0677 88.181 20.4395H92.181ZM45.5002 26.544C42.8899 26.544 40.7981 24.4496 40.7981 21.8645H36.7981C36.7981 26.6714 40.6935 30.544 45.5002 30.544V26.544ZM40.7981 21.8645C40.7981 19.2794 42.8899 17.1849 45.5002 17.1849V13.1849C40.6935 13.1849 36.7981 17.0575 36.7981 21.8645H40.7981ZM45.5002 17.1849C48.1105 17.1849 50.2023 19.2794 50.2023 21.8645H54.2023C54.2023 17.0575 50.3069 13.1849 45.5002 13.1849V17.1849ZM50.2023 21.8645C50.2023 24.4496 48.1105 26.544 45.5002 26.544V30.544C50.3069 30.544 54.2023 26.6714 54.2023 21.8645H50.2023Z" fill="#FFFCFC" mask="url(#path-1-inside-1_144_112)"/>
</svg>
